<svg width="1280" height="800" viewBox="0 0 1280 800" fill="none" xmlns="http://www.w3.org/2000/svg">
<rect width="1280" height="800" fill="#F0F0F0"/>
<path fill-rule="evenodd" clip-rule="evenodd" d="M529.954 336.456C529.954 326.991 537.627 319.318 547.092 319.318C556.557 319.318 564.23 326.991 564.23 336.456C564.23 345.92 556.557 353.593 547.092 353.593C537.627 353.593 529.954 345.92 529.954 336.456ZM547.092 313.46C534.392 313.46 524.096 323.755 524.096 336.456C524.096 349.156 534.392 359.451 547.092 359.451C559.792 359.451 570.087 349.156 570.087 336.456C570.087 323.755 559.792 313.46 547.092 313.46ZM611.751 366.971C612.653 366.971 613.504 367.386 614.059 368.097L659.813 426.672L685.27 394.827C685.826 394.131 686.668 393.727 687.558 393.727C688.448 393.727 689.29 394.131 689.846 394.827L759.359 481.782C760.062 482.662 760.198 483.866 759.711 484.88C759.223 485.895 758.197 486.54 757.071 486.54H700.936C700.875 486.54 700.814 486.538 700.754 486.534C700.694 486.538 700.634 486.54 700.573 486.54H522.929C521.809 486.54 520.787 485.902 520.297 484.895C519.806 483.889 519.931 482.691 520.621 481.808L609.443 368.097C609.998 367.386 610.849 366.971 611.751 366.971ZM702.002 480.682L663.52 431.417L687.558 401.346L750.98 480.682H702.002ZM611.751 374.658L528.933 480.682H694.569L611.751 374.658Z" fill="#ABABAB"/>
</svg>